<svg width="414" height="138" viewBox="0 0 414 138" fill="none" xmlns="http://www.w3.org/2000/svg">
<path d="M1 14H412.495L414 128.331C376.299 142.266 357.362 140.526 325.984 127.044C261.511 97.5857 246.192 115.62 200.138 125.203C102.659 153.904 135.012 115.567 87.8342 123.561C29.7404 101.092 14.8701 104.576 1 122.291V14Z" fill="#D0E7C6"/>
<path d="M0 14H414V121.453C309.495 95.2263 298.713 116.792 289.897 121.453C233.353 151.652 169.348 122.013 144.949 121.453C36.3996 119.425 58.5876 135.901 1.29611 121.453H0V14Z" fill="#7BBB50"/>
<path d="M414 0H0V106.973C51.803 88.379 103.596 93.5211 117.839 106.973C129.091 121.938 193.245 121.411 294.113 106.973C378.675 79.8355 388.245 91.8278 414 106.973V0Z" fill="#3B9B03"/>
</svg>
