<svg width="1920" height="128" viewBox="0 0 1920 128" fill="none" xmlns="http://www.w3.org/2000/svg">
<path d="M-9.5 -17H1923.43L1930.5 116.694C1753.4 132.988 1664.45 130.954 1517.06 115.188C1214.21 80.7413 1142.25 101.83 925.92 113.036C468.028 146.598 620 101.767 398.39 111.115C125.504 84.8409 55.6524 88.9159 -9.5 109.63V-17Z" fill="#D0E7C6"/>
<path d="M-3 -17H1923V109.102C1436.82 78.3234 1386.66 103.632 1345.65 109.102C1082.6 144.542 784.836 109.759 671.326 109.102C166.337 106.722 269.56 126.058 3.02974 109.102H-3V-17Z" fill="#7BBB50"/>
<path d="M1923 -33H-3V92.1038C237.997 70.3585 478.946 76.3721 545.208 92.1038C597.554 109.605 896.008 108.99 1365.26 92.1038C1758.66 60.3669 1803.18 74.3919 1923 92.1038V-33Z" fill="#3B9B03"/>
</svg>
